<?xml version="1.0" encoding="iso-8859-1"?>
<!-- Uploaded to: SVG Repo, www.svgrepo.com, Generator: SVG Repo Mixer Tools -->
<!DOCTYPE svg PUBLIC "-//W3C//DTD SVG 1.1//EN" "http://www.w3.org/Graphics/SVG/1.1/DTD/svg11.dtd">
<svg fill="#000000" height="800px" width="800px" version="1.1" id="Capa_1" xmlns="http://www.w3.org/2000/svg" xmlns:xlink="http://www.w3.org/1999/xlink" 
	 viewBox="0 0 297 297" xml:space="preserve">
<g>
	<path d="M36.01,153.754c0,46.416,37.762,84.178,84.178,84.178c43.009,0,78.588-32.421,83.58-74.105h83.16
		c5.563,0,10.072-4.51,10.072-10.072V79.646c0-5.563-4.51-10.072-10.072-10.072H160.914V99.61c0,4.449-3.608,8.058-8.059,8.058
		s-8.058-3.608-8.058-8.058V69.574h-24.61C73.771,69.574,36.01,107.337,36.01,153.754z"/>
	<path d="M32.833,108.75c-7.165-1.055-12.688-7.227-12.688-14.68c0-8.192,6.666-14.857,14.857-14.857
		c5.651,0,10.573,3.173,13.084,7.83c4.613-4.981,9.729-9.489,15.275-13.433c-6.362-8.799-16.696-14.542-28.358-14.542
		C15.702,59.068,0,74.77,0,94.07c0,15.974,10.763,29.47,25.414,33.649C27.237,121.092,29.734,114.742,32.833,108.75z"/>
</g>
</svg>